# xmcd
#
# Track frame offsets: 
#        150
#        19461
#        40090
#        50384
#        65805
#        82014
#        98874
#        113858
#        124703
#        144959
#        164617
#        178572
#        194113
#        195304
#        210011
#        222641
#
# Disc length: 3170 seconds
#
# Revision: 0
# Processed by: cddbd v1.4PL0 Copyright (c) Steve Scherf et al.
# Submitted via: ExactAudioCopy v0.90a11
#
DISCID=ec0c6010
DTITLE=Take Two - covered
DYEAR=1900
DGENRE=
TTITLE0=Willin'
TTITLE1=Behind the barn
TTITLE2=Like crying
TTITLE3=Ballad of Easy Rider
TTITLE4=Kathy's Song
TTITLE5=Mississippi Kid
TTITLE6=Duelling somewhat (whatever)
TTITLE7=Find yourself another fool
TTITLE8=Room to move
TTITLE9=The Joker
TTITLE10=Cover of the 'Rolling Stone'
TTITLE11=Dust my broom
TTITLE12=Schluﬂ
TTITLE13=Seven bridges road
TTITLE14=Route 66
TTITLE15=Bring it on home
EXTD=
EXTT0=
EXTT1=
EXTT2=
EXTT3=
EXTT4=
EXTT5=
EXTT6=
EXTT7=
EXTT8=
EXTT9=
EXTT10=
EXTT11=
EXTT12=
EXTT13=
EXTT14=
EXTT15=
PLAYORDER=
